<svg width="12" height="13" viewBox="0 0 12 13" fill="none" xmlns="http://www.w3.org/2000/svg">
<path d="M6 0.5C2.68548 0.5 0 3.18548 0 6.5C0 9.81452 2.68548 12.5 6 12.5C9.31452 12.5 12 9.81452 12 6.5C12 3.18548 9.31452 0.5 6 0.5ZM6 11.3387C3.33145 11.3387 1.16129 9.16855 1.16129 6.5C1.16129 3.83145 3.33145 1.66129 6 1.66129C8.66855 1.66129 10.8387 3.83145 10.8387 6.5C10.8387 9.16855 8.66855 11.3387 6 11.3387ZM8.85 7.79677C8.60323 7.59113 8.2379 7.625 8.03226 7.87177C7.52903 8.47661 6.78629 8.825 6 8.825C5.21371 8.825 4.47097 8.47903 3.96774 7.87177C3.7621 7.625 3.39435 7.59355 3.15 7.79677C2.90323 8.00242 2.87177 8.36774 3.075 8.61452C3.80081 9.48548 4.86774 9.98387 6 9.98387C7.13226 9.98387 8.19919 9.48548 8.925 8.61452C9.13064 8.36774 9.09677 8.00242 8.85 7.79677ZM4.06452 6.1129C4.49274 6.1129 4.83871 5.76694 4.83871 5.33871C4.83871 4.91048 4.49274 4.56452 4.06452 4.56452C3.63629 4.56452 3.29032 4.91048 3.29032 5.33871C3.29032 5.76694 3.63629 6.1129 4.06452 6.1129ZM7.93548 4.66129C7.31371 4.66129 6.58306 5.07016 6.48629 5.67984C6.44516 5.95081 6.76452 6.12016 6.96532 5.94113L7.19516 5.73548C7.55323 5.41613 8.3129 5.41613 8.67097 5.73548L8.90081 5.94113C9.10645 6.12016 9.42339 5.94839 9.37984 5.67984C9.2879 5.07016 8.55726 4.66129 7.93548 4.66129Z" fill="white"/>
</svg>
